<mxfile host="app.diagrams.net" modified="2024-03-15T06:29:44.475Z" agent="Mozilla/5.0 (Windows NT 10.0; Win64; x64) AppleWebKit/537.36 (KHTML, like Gecko) Chrome/122.0.0.0 Safari/537.36" etag="Ulp3cnjm5D1M149ZIlt3" version="24.0.4" type="device">
  <diagram name="Page-1" id="kzgx-i79ovGWx9KXp3sz">
    <mxGraphModel dx="794" dy="412" grid="1" gridSize="10" guides="1" tooltips="1" connect="1" arrows="1" fold="1" page="1" pageScale="1" pageWidth="850" pageHeight="1100" math="0" shadow="0">
      <root>
        <mxCell id="0" />
        <mxCell id="1" parent="0" />
        <mxCell id="E-tv3ElxnRQCsgqTcv-A-8" value="" style="edgeStyle=orthogonalEdgeStyle;rounded=0;orthogonalLoop=1;jettySize=auto;html=1;" edge="1" parent="1" source="E-tv3ElxnRQCsgqTcv-A-1" target="E-tv3ElxnRQCsgqTcv-A-7">
          <mxGeometry relative="1" as="geometry" />
        </mxCell>
        <mxCell id="E-tv3ElxnRQCsgqTcv-A-1" value="TAKE THE INPUT" style="rounded=0;whiteSpace=wrap;html=1;" vertex="1" parent="1">
          <mxGeometry x="305" y="70" width="120" height="60" as="geometry" />
        </mxCell>
        <mxCell id="E-tv3ElxnRQCsgqTcv-A-10" value="" style="edgeStyle=orthogonalEdgeStyle;rounded=0;orthogonalLoop=1;jettySize=auto;html=1;" edge="1" parent="1" source="E-tv3ElxnRQCsgqTcv-A-7" target="E-tv3ElxnRQCsgqTcv-A-9">
          <mxGeometry relative="1" as="geometry" />
        </mxCell>
        <mxCell id="E-tv3ElxnRQCsgqTcv-A-7" value="LEVEL?&lt;br&gt;EASY OR HARD" style="rhombus;whiteSpace=wrap;html=1;rounded=0;" vertex="1" parent="1">
          <mxGeometry x="297.5" y="170" width="135" height="110" as="geometry" />
        </mxCell>
        <mxCell id="E-tv3ElxnRQCsgqTcv-A-14" value="" style="edgeStyle=orthogonalEdgeStyle;rounded=0;orthogonalLoop=1;jettySize=auto;html=1;" edge="1" parent="1" source="E-tv3ElxnRQCsgqTcv-A-9" target="E-tv3ElxnRQCsgqTcv-A-13">
          <mxGeometry relative="1" as="geometry" />
        </mxCell>
        <mxCell id="E-tv3ElxnRQCsgqTcv-A-9" value="GUESS REPEAT 5 TIMES" style="whiteSpace=wrap;html=1;rounded=0;" vertex="1" parent="1">
          <mxGeometry x="190" y="330" width="350" height="60" as="geometry" />
        </mxCell>
        <mxCell id="E-tv3ElxnRQCsgqTcv-A-15" style="edgeStyle=orthogonalEdgeStyle;rounded=0;orthogonalLoop=1;jettySize=auto;html=1;exitX=1;exitY=0.5;exitDx=0;exitDy=0;entryX=1;entryY=0.5;entryDx=0;entryDy=0;" edge="1" parent="1">
          <mxGeometry relative="1" as="geometry">
            <mxPoint x="490" y="495" as="sourcePoint" />
            <mxPoint x="587.5" y="370" as="targetPoint" />
          </mxGeometry>
        </mxCell>
        <mxCell id="E-tv3ElxnRQCsgqTcv-A-13" value="USER NUMBER &amp;gt; GUESS NUMBER" style="rhombus;whiteSpace=wrap;html=1;rounded=0;" vertex="1" parent="1">
          <mxGeometry x="287.5" y="410" width="155" height="150" as="geometry" />
        </mxCell>
      </root>
    </mxGraphModel>
  </diagram>
</mxfile>
